<svg height="512" viewBox="0 0 43 58" width="512" xmlns="http://www.w3.org/2000/svg"><g id="Page-1" fill="none" fill-rule="evenodd"><g id="029---Math-Compass" fill-rule="nonzero"><path id="Shape" d="m39 57c-.4464878-.0003258-.8386624-.2965993-.961-.726l-2-7.02c-.151326-.5312979.1567021-1.0846739.688-1.2359999s1.0846739.156702 1.236.6879999l2 7.02c.086004.30187.0252822.6266056-.1639893.8770022s-.4851285.3973966-.7990107.3969978z" fill="#808b8c"/><path id="Rectangle-path" d="m7.664 42.752h2v9.215h-2z" fill="#95a4a4" transform="matrix(.247 -.969 .969 .247 -39.367 44.041)"/><path id="Rectangle-path" d="m35.966 45.516h5.58v2h-5.58z" fill="#95a4a4" transform="matrix(.969 -.246 .246 .969 -10.256 10.969)"/><path id="Shape" d="m22.74 15.84-9.62 36.7c-.06371.2583414-.2295273.4797708-.4594992.6136069-.229972.1338362-.5044103.1686211-.7605008.0963931l-1.93-.51c-.25750666-.0659011-.47818129-.2316107-.61327795-.4605245s-.17349825-.5021944-.10672205-.7594755l10.12-38.62z" fill="#bcc2c6"/><path id="Shape" d="m28.63 12.9 10.37 39.59c-2.134261.5582363-4.3175563-.7168439-4.88-2.85l-8.86-33.8z" fill="#bcc2c6"/><path id="Shape" d="m7.33 41.61-3.41 13.93c-.04725275.1614762-.13304915.309046-.25.43l-1.64 1.72c-.26480638.2750257-.66310273.3752733-1.02655307.2583741-.36345033-.1168992-.62862359-.4305435-.68344693-.8083741l-.31-2.17c-.01833006-.1334141-.01154678-.2690797.02-.4l3.4-13.87z" fill="#f1d24b"/><path id="Shape" d="m8.12 38.39-.79 3.22-3.9-.91.81-3.3c.14018277-.529297.67793545-.8492821 1.21-.72l1.95.49c.25883086.063721.48107816.2290261.61655781.4585888.13547965.2295628.1727669.5040246.10344219.7614112z" fill="#f85360"/><path id="Shape" d="m42 49c-.4583065-.0004704-.8576317-.3124303-.969-.757l-1-4c-.1297214-.5339666.1957027-1.072566.7287292-1.2060974.5330266-.1335314 1.0739362.1880381 1.2112708.7200974l1 4c.0644087.2573975.0238814.5298406-.1126593.7573459-.1365406.2275052-.3578997.3914195-.6153407.4556541-.0794037.020245-.1610567.0303256-.243.03z" fill="#464f5e"/><path id="Shape" d="m29 7v4c.0073504 2.2789438-1.5329064 4.2722174-3.74 4.84-.8264536.2133443-1.6935464.2133443-2.52 0-2.2070936-.5677826-3.7473504-2.5610562-3.74-4.84v-4c.0032948-1.10320187.8967981-1.9967052 2-2h6c1.1032019.0032948 1.9967052.89679813 2 2z" fill="#415c6d"/><path id="Shape" d="m22 5v-3c0-1.1045695.8954305-2 2-2s2 .8954305 2 2v3z" fill="#36495f"/><circle id="Oval" cx="24" cy="10" fill="#ebeff0" r="1"/></g></g></svg>