<svg height="512" viewBox="0 0 60 60" width="512" xmlns="http://www.w3.org/2000/svg"><g id="Page-1" fill="none" fill-rule="evenodd"><g id="031---Compass" fill-rule="nonzero" transform="translate(-1 -1)"><circle id="Oval" cx="31" cy="31" fill="#009688" r="28"/><path id="Shape" d="m31 3c-.5 0-1 .015-1.5.041 14.8536374.80470757 26.485299 13.0835807 26.485299 27.959s-11.6316616 27.1542924-26.485299 27.959c.5.026 1 .041 1.5.041 15.4639727-.0000004 27.9999993-12.5360273 27.9999993-28s-12.5360266-27.9999996-27.9999993-28z" fill="#00695c"/><circle id="Oval" cx="31" cy="31" fill="#ffe0b2" r="24"/><path id="Shape" d="m31 7c-.5 0-1 .021-1.5.052 12.6578819.77630689 22.5261484 11.268335 22.5261484 23.95s-9.8682665 23.1736931-22.5261484 23.95c.5.031 1 .052 1.5.052 13.2559386 0 24.002-10.7460614 24.002-24.002s-10.7460614-24.002-24.002-24.002z" fill="#dfc49c"/><path id="Shape" d="m31 31h-29l20.17-5.26 2.83-.74z" fill="#ffdc00"/><path id="Shape" d="m31 2v29l-6-6 .74-2.83z" fill="#ff9801"/><path id="Shape" d="m37 25-6 6v-29l5.26 20.17z" fill="#ffdc00"/><path id="Shape" d="m60 31h-29l6-6 2.83.74z" fill="#ff9801"/><path id="Shape" d="m60 31-20.17 5.26-2.83.74-6-6z" fill="#ffdc00"/><path id="Shape" d="m37 37-.74 2.83-5.26 20.17v-29z" fill="#ff9801"/><path id="Shape" d="m31 31v29l-5.26-20.17-.74-2.83z" fill="#ffdc00"/><path id="Shape" d="m31 31-6 6-2.83-.74-20.17-5.26z" fill="#ff9801"/><g fill="#f57c00"><path id="Shape" d="m25.74 22.17-.74 2.83-2.83.74-4.17-7.74z"/><path id="Shape" d="m44 18-4.17 7.74-2.83-.74-.74-2.83z"/><path id="Shape" d="m25.74 39.83-7.74 4.17 4.17-7.74 2.83.74z"/><path id="Shape" d="m44 44-7.74-4.17.74-2.83 2.83-.74z"/></g><path id="Shape" d="m1.748 31.968.288.075c.60618138 15.1621585 12.7588415 27.3148186 27.921 27.921l.075.288c.1143412.4410526.5123671.7490498.968.7490498s.8536588-.3079972.968-.7490498l.075-.288c15.1621585-.6061814 27.3148186-12.7588415 27.921-27.921l.288-.075c.4410526-.1143412.7490498-.5123671.7490498-.968s-.3079972-.8536588-.7490498-.968l-.288-.075c-.6061814-15.1621585-12.7588415-27.31481862-27.921-27.921l-.075-.288c-.1143412-.44105264-.5123671-.74904981-.968-.74904981s-.8536588.30799717-.968.74904981l-.075.288c-15.1621585.60618138-27.31481862 12.7588415-27.921 27.921l-.288.075c-.44105264.1143412-.74904981.5123671-.74904981.968s.30799717.8536588.74904981.968zm7.662-8.829 1.5.621c.3301134.1366541.7080549.0868143.9914575-.1307453.2834026-.2175595.4292108-.5697863.3825-.924-.0467108-.3542136-.2788441-.6566006-.6089575-.7932547l-1.491-.618c.987248-2.1267432 2.2966436-4.0884756 3.882-5.816l.229.229c.3923789.3789722 1.0160848.3735524 1.4018186-.0121814s.3911536-1.0094397.0121814-1.4018186l-.229-.229c1.7275936-1.5852683 3.6893116-2.8946543 5.816-3.882l.618 1.491c.2112489.5103111.7961889.7527489 1.3065.5415s.7527489-.7961889.5415-1.3065l-.621-1.5c1.683985-.61731994 3.4351984-1.03288486 5.217-1.238l-3.266 12.515-6.618-3.565c-.3886596-.208576-.8680744-.1378696-1.179972.174028s-.382604.7913124-.174028 1.179972l3.565 6.618-12.513 3.264c.20532818-1.7817642.62088719-3.5329527 1.238-5.217zm29.371-10.925c.2450539.1016421.5204541.101742.7655816.0002776s.4398902-.2961765.5414184-.5412776l.618-1.491c2.1267432.987248 4.0884756 2.2966436 5.816 3.882l-.229.229c-.2599566.2510745-.3642126.6228779-.2726972.9725073.0915155.3496295.3645604.6226744.7141899.7141899.3496294.0915154.7214328-.0127406.9725073-.2726972l.229-.229c1.5852683 1.7275936 2.8946543 3.6893116 3.882 5.816l-1.491.618c-.5103111.2112489-.7527489.7961889-.5415 1.3065s.7961889.7527489 1.3065.5415l1.5-.621c.6173199 1.683985 1.0328849 3.4351984 1.238 5.217l-12.515-3.264 3.565-6.618c.208576-.3886596.1378696-.8680744-.174028-1.179972s-.7913124-.382604-1.179972-.174028l-6.618 3.565-3.264-12.513c1.7817642.20532818 3.5329527.62088719 5.217 1.238l-.621 1.5c-.2096673.5094817.032245 1.0925754.541 1.304zm13.809 26.647-1.5-.621c-.5103111-.2112489-1.0952511.0311889-1.3065.5415s.0311889 1.0952511.5415 1.3065l1.491.618c-.987248 2.1267432-2.2966436 4.0884756-3.882 5.816l-.229-.229c-.3923789-.3789722-1.0160848-.3735524-1.4018186.0121814s-.3911536 1.0094397-.0121814 1.4018186l.229.229c-1.7275936 1.5852683-3.6893116 2.8946543-5.816 3.882l-.618-1.491c-.2112489-.5103111-.7961889-.7527489-1.3065-.5415s-.7527489.7961889-.5415 1.3065l.621 1.5c-1.683985.6173199-3.4351984 1.0328849-5.217 1.238l3.264-12.513 6.618 3.565c.3886596.208576.8680744.1378696 1.179972-.174028s.382604-.7913124.174028-1.179972l-3.565-6.618 12.513-3.264c-.2048371 1.7810044-.6197222 3.5315106-1.236 5.215zm-29.371 10.925c-.2450539-.1016421-.5204541-.101742-.7655816-.0002776s-.4398902.2961765-.5414184.5412776l-.618 1.491c-2.1267432-.987248-4.0884756-2.2966436-5.816-3.882l.229-.229c.3789722-.3923789.3735524-1.0160848-.0121814-1.4018186s-1.0094397-.3911536-1.4018186-.0121814l-.229.229c-1.5852683-1.7275936-2.8946543-3.6893116-3.882-5.816l1.491-.618c.5103111-.2112489.7527489-.7961889.5415-1.3065s-.7961889-.7527489-1.3065-.5415l-1.5.621c-.61731994-1.683985-1.03288486-3.4351984-1.238-5.217l12.513 3.264-3.563 6.618c-.208576.3886596-.1378696.8680744.174028 1.179972s.7913124.382604 1.179972.174028l6.618-3.565 3.264 12.513c-1.7817642-.2053282-3.5329527-.6208872-5.217-1.238l.621-1.5c.2096673-.5094817-.032245-1.0925754-.541-1.304zm1.479-13.9-14.898-3.886h18.786zm-.518 1.934.392 1.5-4.11 2.215 2.215-4.11zm1.932-.518 3.888-3.888v18.791zm5.888-3.888 3.888 3.886-3.888 14.905zm5.82 4.406 1.5-.392 2.215 4.11-4.11-2.215zm-.52-1.932-3.886-3.888h18.791zm-3.886-5.888 3.886-3.888 2.273.593.027.007 12.605 3.288zm4.406-5.82-.392-1.5 4.11-2.215-2.215 4.11zm-1.932.518-3.888 3.888v-18.786zm-5.888 3.888-3.888-3.886 3.888-14.9zm-5.82-4.406-1.5.392-2.215-4.11 4.11 2.215zm-1.78 2.532.027-.007 2.273-.593 3.886 3.888h-18.786zm-18.345 5.858 2.058.537c.20658687 2.5550244.80946454 5.0623477 1.787 7.432 0 .009 0 .019.006.028.00751709.014148.01586503.0278386.025.041 1.24904538 3.0172874 3.0814013 5.7583451 5.392 8.066 2.3110434 2.3150206 5.0570406 4.1502167 8.08 5.4.01.005.016.014.027.018s.02 0 .03.006c2.3691982.9762743 4.8758209 1.5781337 7.43 1.784l.537 2.058c-13.6425131-.8538084-24.51711619-11.7275542-25.372-25.37zm28.515 25.375.537-2.058c2.5547132-.2065123 5.0617185-.8093946 7.431-1.787.01 0 .02 0 .029-.006s.017-.013.028-.018c3.0223289-1.2504115 5.767882-3.085538 8.079-5.4 2.3111484-2.3077929 4.1438659-5.0492229 5.393-8.067.007-.014.018-.025.024-.04s0-.019.006-.029c.976282-2.3695439 1.5781396-4.8764969 1.784-7.431l2.058-.537c-.8532706 13.6425468-11.7265879 24.5175785-25.369 25.373zm25.375-28.515-2.058-.537c-.2065869-2.5550244-.8094645-5.0623477-1.787-7.432 0-.009 0-.019-.006-.028s-.013-.017-.018-.027c-1.2501564-3.0227601-3.0853063-5.7686881-5.4-8.08-2.3110434-2.3150206-5.0570406-4.15021675-8.08-5.4-.01 0-.016-.014-.027-.018s-.019 0-.029-.006c-2.3695439-.97628198-4.8764969-1.57813963-7.431-1.784l-.539-2.063c13.6454666.85262784 24.5223722 11.7295334 25.375 25.375zm-28.515-25.375-.537 2.058c-2.5550244.20658687-5.0623477.80946454-7.432 1.787-.009 0-.019 0-.028.006s-.017.013-.028.018c-3.0223289 1.25041151-5.767882 3.085538-8.079 5.4-2.3150206 2.3110434-4.15021675 5.0570406-5.4 8.08 0 .01-.014.016-.018.027s0 .019-.006.029c-.97628198 2.3695439-1.57813963 4.8764969-1.784 7.431l-2.058.537c.85332476-13.6429033 11.7271977-24.51806207 25.37-25.373z" fill="#000"/></g></g></svg>