<svg height="512" viewBox="0 0 44 60" width="512" xmlns="http://www.w3.org/2000/svg"><g id="Page-1" fill="none" fill-rule="evenodd"><g id="029---Math-Compass" fill-rule="nonzero"><g id="colour" transform="translate(0 1)"><path id="Shape" d="m30 7v4c.000621 2.2766533-1.5368205 4.2662834-3.74 4.84-.8262231.2151518-1.6937769.2151518-2.52 0-2.2031795-.5737166-3.740621-2.5633467-3.74-4.84v-4c0-1.1045695.8954305-2 2-2h6c1.1045695 0 2 .8954305 2 2z" fill="#2fbcd5"/><path id="Shape" d="m28 5h-3c1.1045695 0 2 .8954305 2 2v4c-.0042288 2.1800084-1.4203993 4.1060003-3.5 4.76l.24.08c.8262231.2151518 1.6937769.2151518 2.52 0 2.2031795-.5737166 3.740621-2.5633467 3.74-4.84v-4c0-1.1045695-.8954305-2-2-2z" fill="#1e828f"/><path id="Shape" d="m27 2v3h-4v-3c0-1.1045695.8954305-2 2-2 .5295768.00223279 1.0366497.21441221 1.41.59.3755878.37335029.5877672.88042315.59 1.41z" fill="#259587"/><path id="Shape" d="m23.74 15.84-8.63 32.91-3.87-1 9.13-34.85c.5980307 1.4557584 1.8465699 2.5449885 3.37 2.94z" fill="#ced7db"/><path id="Shape" d="m15.11 48.75-1 3.79c-.1417217.5322768-.6871955.8497247-1.22.71l-1.89-.51c-.2575067-.0659011-.4781813-.2316107-.6132779-.4605245-.1350967-.2289138-.1734983-.5021944-.1067221-.7594755l1-3.76z" fill="#627d8b"/><path id="Shape" d="m40 52.49c-2.134261.5582363-4.3175563-.7168439-4.88-2.85l-8.86-33.8c1.5234301-.3950115 2.7719693-1.4842416 3.37-2.94z" fill="#ced7db"/><path id="Shape" d="m8.33 41.61-1.25 5.09-3.88-.99 1.23-5.01z" fill="#972fb2"/><g fill="#e83247"><path id="Shape" d="m7.08 46.7-2.16 8.84c-.0457879.1621012-.13178124.3100098-.25.43l-1.67 1.72c-.26480638.2750257-.66310273.3752733-1.02655307.2583741-.36345033-.1168992-.62862359-.4305435-.68344693-.8083741l-.29-2.14c-.02490676-.1321702-.02490676-.2678298 0-.4l2.17-8.86z"/><path id="Shape" d="m9.12 38.39-.79 3.22-3.9-.91.81-3.3c.13739173-.5313968.67742136-.8527367 1.21-.72l1.95.49c.25750666.0659011.47818129.2316107.61327795.4605245s.17349825.5021944.10672205.7594755z"/></g></g><g id="outline" fill="#000"><circle id="Oval" cx="25" cy="11" r="1"/><path id="Shape" d="m9.88 38.12c-.27152151-.4640755-.71846155-.7992805-1.24-.93l-2-.48c-1.06822039-.2648306-2.14968487.3831543-2.42 1.45l-4.16 17.16c-.04997778.260962-.04997778.529038 0 .79l.31 2.17c.10220905.7476691.6165464 1.3741552 1.33 1.62.19955166.0680461.40917377.1018562.62.1.54437524-.0020775 1.06438231-.2259695 1.44-.62l1.64-1.71c.23371623-.2520894.40197341-.5576994.49-.89l1.92-7.86 2.21.56-.73 2.79c-.27944931 1.065609.35544644 2.1565566 1.42 2.44l1.94.51c.1657393.0477841.3375152.0713612.51.07.3512598-.0006233.6961604-.0937465 1-.27.4581584-.2712026.7892735-.713889.92-1.23l9.4-35.79c.3323073.0369867.6676927.0369867 1 0l8.63 32.92c.5936437 2.2054171 2.6062576 3.7282538 4.89 3.7h.31l.69 2.65c.1245106.4452375.5379962.747082 1 .73.0894112.0145589.1805888.0145589.27 0 .2707386-.0626009.5032206-.2350335.641701-.4759514.1384804-.240918.1704702-.528594.088299-.7940486l-1-3.49-1.23-4.69 2-.5.3 1.19c.1751864.4804191.684592.7512696 1.1808385.6278508s.8194296-.601338.7491615-1.1078508l-1-4c-.1491291-.5161023-.6793873-.8221608-1.2008781-.6931322-.5214908.1290287-.8478565.6470354-.7391219 1.1731322l.22.87-2 .51-8.61-32.68c.2170973-.6238212.3286275-1.2794834.33-1.94v-4c0-1.65685425-1.3431458-3-3-3v-2c0-1.65685425-1.3431458-3-3-3s-3 1.34314575-3 3v2c-1.6568542 0-3 1.34314575-3 3v4c.0013725.6605166.1129027 1.3161788.33 1.94l-8.81 33.61-2.23-.55 1.8-7.34c.1404822-.520652.0647568-1.0759715-.21-1.54zm3.28 15.17-1.94-.51.78-2.78 1.94.49zm24.31-1.08c-.6857679-.3989959-1.1855583-1.0533978-1.39-1.82l-8.62-32.92c.6515505-.2997086 1.2468521-.7089785 1.76-1.21l9.52 36.35c-.4485581-.0333894-.88327-.1703065-1.27-.4zm-13.47-49.21c0-.55228475.4477153-1 1-1s1 .44771525 1 1v2h-2zm-3 5c0-.55228475.4477153-1 1-1h6c.5522847 0 1 .44771525 1 1v4c0 2.209139-1.790861 4-4 4s-4-1.790861-4-4zm-.22 8.26c.5131479.5010215 1.1084495.9102914 1.76 1.21l-8.14 31.07-1.94-.54zm-14.57 22.39 1.94.5-.55 2.26-2-.45.57-2.31zm-2.21 17.63-1.69 1.72-.31-2.19 1.93-7.88 2 .5zm.41-10.28.76-3.09 1.95.45-.77 3.13z"/></g></g></g></svg>